<svg id="visual" viewBox="0 0 960 300" width="960" height="300" xmlns="http://www.w3.org/2000/svg" xmlns:xlink="http://www.w3.org/1999/xlink" version="1.1"><path d="M0 209L22.8 214.8C45.7 220.7 91.3 232.3 137 228.7C182.7 225 228.3 206 274 206.2C319.7 206.3 365.3 225.7 411.2 231.7C457 237.7 503 230.3 548.8 227.5C594.7 224.7 640.3 226.3 686 229C731.7 231.7 777.3 235.3 823 230.3C868.7 225.3 914.3 211.7 937.2 204.8L960 198L960 301L937.2 301C914.3 301 868.7 301 823 301C777.3 301 731.7 301 686 301C640.3 301 594.7 301 548.8 301C503 301 457 301 411.2 301C365.3 301 319.7 301 274 301C228.3 301 182.7 301 137 301C91.3 301 45.7 301 22.8 301L0 301Z" fill="#A8A89E" stroke-linecap="round" stroke-linejoin="miter"></path></svg>